<?xml version="1.0" ?><svg id="social_x5F_gossip" style="enable-background:new 0 0 30 32;" version="1.1" viewBox="0 0 30 32" xml:space="preserve" xmlns="http://www.w3.org/2000/svg" xmlns:xlink="http://www.w3.org/1999/xlink"><g><g><path d="M29,23c-0.552,0-1-0.447-1-1c0-2.206-1.794-4-4-4c-0.552,0-1-0.447-1-1s0.448-1,1-1    c3.309,0,6,2.691,6,6C30,22.553,29.552,23,29,23z" style="fill:#FD5C3F;"/></g><g><path d="M25,24c-0.552,0-1-0.447-1-1c0-0.552-0.449-1-1-1c-0.552,0-1-0.447-1-1s0.448-1,1-1    c1.654,0,3,1.346,3,3C26,23.553,25.552,24,25,24z" style="fill:#FD5C3F;"/></g><g><path d="M23,26c-0.552,0-1-0.447-1-1s0.448-1,1-1c0.551,0,1-0.448,1-1c0-0.553,0.448-1,1-1s1,0.447,1,1    C26,24.654,24.654,26,23,26z" style="fill:#FD5C3F;"/></g><g><path d="M23.001,22c-0.03,0-0.061-0.001-0.091-0.004l-11-1c-0.55-0.05-0.956-0.536-0.906-1.087    c0.05-0.549,0.54-0.95,1.086-0.905l11,1c0.55,0.05,0.956,0.536,0.906,1.087C23.949,21.609,23.513,22,23.001,22z" style="fill:#FD5C3F;"/></g><g><path d="M12,21c-0.256,0-0.512-0.098-0.707-0.293l-2-2c-0.391-0.391-0.391-1.023,0-1.414    s1.023-0.391,1.414,0l2,2c0.391,0.391,0.391,1.023,0,1.414C12.512,20.902,12.256,21,12,21z" style="fill:#FD5C3F;"/></g><g><path d="M10,19c-0.256,0-0.512-0.098-0.707-0.293c-0.391-0.391-0.391-1.023,0-1.414l2-2    c0.391-0.391,1.023-0.391,1.414,0s0.391,1.023,0,1.414l-2,2C10.512,18.902,10.256,19,10,19z" style="fill:#FD5C3F;"/></g><g><path d="M12,17c-0.552,0-1-0.447-1-1v-2c0-0.553,0.448-1,1-1s1,0.447,1,1v2C13,16.553,12.552,17,12,17z" style="fill:#FD5C3F;"/></g><g><path d="M12,15c-0.256,0-0.512-0.098-0.707-0.293l-1-1c-0.391-0.391-0.391-1.023,0-1.414    s1.023-0.391,1.414,0l1,1c0.391,0.391,0.391,1.023,0,1.414C12.512,14.902,12.256,15,12,15z" style="fill:#FD5C3F;"/></g><g><path d="M11.001,14c-0.054,0-0.11-0.004-0.166-0.014c-0.979-0.163-1.904-0.3-2.767-0.427    C3.385,12.869,0,12.371,0,9c0-0.553,0.448-1,1-1s1,0.447,1,1c0,1.502,1.744,1.901,6.36,2.581c0.875,0.129,1.812,0.268,2.804,0.433    c0.544,0.091,0.913,0.606,0.822,1.15C11.905,13.653,11.481,14,11.001,14z" style="fill:#FD5C3F;"/></g><g><path d="M14,8H8C7.448,8,7,7.553,7,7s0.448-1,1-1h6c0.552,0,1,0.447,1,1S14.552,8,14,8z" style="fill:#FD5C3F;"/></g><g><path d="M16.999,10c-0.19,0-0.383-0.055-0.554-0.168l-3-2c-0.459-0.307-0.583-0.927-0.277-1.387    c0.307-0.46,0.926-0.584,1.387-0.277l3,2c0.459,0.307,0.583,0.927,0.277,1.387C17.639,9.844,17.322,10,16.999,10z" style="fill:#FD5C3F;"/></g><g><path d="M20,2h-4c-0.552,0-1-0.447-1-1s0.448-1,1-1h4c0.552,0,1,0.447,1,1S20.552,2,20,2z" style="fill:#FD5C3F;"/></g><g><path d="M23,5c-0.552,0-1-0.447-1-1c0-1.103-0.897-2-2-2c-0.552,0-1-0.447-1-1s0.448-1,1-1    c2.206,0,4,1.794,4,4C24,4.553,23.552,5,23,5z" style="fill:#FD5C3F;"/></g><g><path d="M18,10c-0.552,0-1-0.447-1-1s0.448-1,1-1c2.206,0,4-1.794,4-4c0-0.553,0.448-1,1-1s1,0.447,1,1    C24,7.309,21.309,10,18,10z" style="fill:#FD5C3F;"/></g><g><path d="M18,10h-1c-0.552,0-1-0.447-1-1s0.448-1,1-1h1c0.552,0,1,0.447,1,1S18.552,10,18,10z" style="fill:#FD5C3F;"/></g><g><path d="M12.999,27c-0.508,0-0.942-0.385-0.994-0.9c-0.055-0.55,0.346-1.04,0.896-1.095l10-1    c0.554-0.042,1.04,0.347,1.095,0.896c0.055,0.55-0.346,1.04-0.896,1.095l-10,1C13.066,26.998,13.032,27,12.999,27z" style="fill:#FD5C3F;"/></g><g><path d="M11,29c-0.256,0-0.512-0.098-0.707-0.293c-0.391-0.391-0.391-1.023,0-1.414l2-2    c0.391-0.391,1.023-0.391,1.414,0s0.391,1.023,0,1.414l-2,2C11.512,28.902,11.256,29,11,29z" style="fill:#FD5C3F;"/></g><g><path d="M11,30c-0.552,0-1-0.447-1-1v-1c0-0.553,0.448-1,1-1s1,0.447,1,1v1C12,29.553,11.552,30,11,30z" style="fill:#FD5C3F;"/></g><g><path d="M12.999,31c-0.15,0-0.303-0.034-0.446-0.105l-2-1c-0.494-0.247-0.694-0.848-0.447-1.342    c0.247-0.494,0.847-0.693,1.342-0.447l2,1c0.494,0.247,0.694,0.848,0.447,1.342C13.719,30.798,13.366,31,12.999,31z" style="fill:#FD5C3F;"/></g><g><rect height="2" style="fill:#FD5C3F;" width="2" x="12" y="30"/></g><g><path d="M1.934,9.357L0.066,8.643l2.997-7.827V0h2v1c0,0.122-0.022,0.243-0.066,0.357L1.934,9.357z" style="fill:#FD5C3F;"/></g><g><rect height="2" style="fill:#FD5C3F;" width="7" y="22"/></g><g><rect height="5.385" style="fill:#FD5C3F;" transform="matrix(0.3714 -0.9285 0.9285 0.3714 -14.8123 16.1217)" width="2.001" x="3.5" y="16.307"/></g><g><rect height="2.001" style="fill:#FD5C3F;" transform="matrix(0.9284 -0.3715 0.3715 0.9284 -9.7078 3.6037)" width="5.385" x="1.807" y="26"/></g></g></svg>