<svg width="170" height="57" viewBox="0 0 170 57" fill="none" xmlns="http://www.w3.org/2000/svg">
<rect x="0.677734" width="168.828" height="56.2761" rx="10" fill="#EFEFEF"/>
<path d="M77.114 35H78.775L75.299 26.86H73.858L70.382 35H72.043L72.703 33.383H76.454L77.114 35ZM73.231 32.096L74.584 28.785L75.937 32.096H73.231ZM82.975 28.961C82.062 28.961 81.402 29.335 80.984 29.962L80.951 29.071H79.51V37.42H81.006V34.142C81.424 34.747 82.073 35.11 82.975 35.11C84.57 35.11 85.813 33.867 85.813 32.008C85.813 30.171 84.57 28.961 82.975 28.961ZM82.634 33.823C81.655 33.823 81.006 33.108 81.006 32.03C81.006 30.952 81.655 30.237 82.634 30.237C83.602 30.237 84.262 30.952 84.262 32.019C84.262 33.108 83.602 33.823 82.634 33.823ZM90.4515 28.961C89.5385 28.961 88.8785 29.335 88.4605 29.962L88.4275 29.071H86.9865V37.42H88.4825V34.142C88.9005 34.747 89.5495 35.11 90.4515 35.11C92.0465 35.11 93.2895 33.867 93.2895 32.008C93.2895 30.171 92.0465 28.961 90.4515 28.961ZM90.1105 33.823C89.1315 33.823 88.4825 33.108 88.4825 32.03C88.4825 30.952 89.1315 30.237 90.1105 30.237C91.0785 30.237 91.7385 30.952 91.7385 32.019C91.7385 33.108 91.0785 33.823 90.1105 33.823ZM99.9639 35.11C101.834 35.11 103.088 34.142 103.088 32.701C103.088 31.238 101.757 30.556 100.503 30.215L100.03 30.083C99.2269 29.852 98.5779 29.621 98.5779 28.972C98.5779 28.4 99.1389 28.037 99.9969 28.037C100.789 28.037 101.438 28.279 102.043 28.763L102.736 27.685C101.955 27.058 101.031 26.75 99.9859 26.75C98.1709 26.75 96.9719 27.74 96.9719 29.225C96.9719 30.556 97.9729 31.117 99.3149 31.48L99.7769 31.612C100.8 31.898 101.482 32.184 101.482 32.844C101.482 33.471 100.888 33.823 99.8649 33.823C99.1169 33.823 98.3469 33.614 97.6539 33.042L97.0709 34.087C97.7969 34.758 98.8419 35.11 99.9639 35.11ZM106.966 33.823C106.482 33.823 106.152 33.471 106.152 32.932V30.292H107.901V29.071H106.152V27.333H104.656V29.071H103.677V30.292H104.656V33.24C104.656 34.362 105.393 35.11 106.482 35.11C107.01 35.11 107.538 35.022 107.989 34.835V33.625C107.648 33.768 107.307 33.823 106.966 33.823ZM111.771 35.11C113.663 35.11 114.939 33.878 114.939 32.03C114.939 30.193 113.663 28.961 111.771 28.961C109.868 28.961 108.592 30.193 108.592 32.03C108.592 33.878 109.868 35.11 111.771 35.11ZM111.771 33.823C110.792 33.823 110.143 33.108 110.143 32.03C110.143 30.952 110.792 30.237 111.771 30.237C112.739 30.237 113.388 30.952 113.388 32.03C113.388 33.108 112.739 33.823 111.771 33.823ZM117.582 29.863L117.56 29.071H116.119V35H117.615V31.821C117.615 30.93 118.429 30.336 119.661 30.336L119.76 28.961C118.803 28.961 118.055 29.28 117.582 29.863ZM125.929 31.942C125.929 30.149 124.741 28.961 122.97 28.961C121.188 28.961 120.011 30.204 120.011 32.074C120.011 33.9 121.221 35.11 123.036 35.11C124.158 35.11 125.093 34.604 125.621 33.812L124.466 33.229C124.114 33.658 123.619 33.933 123.014 33.933C122.145 33.933 121.705 33.405 121.595 32.569H125.885C125.907 32.393 125.929 32.151 125.929 31.942ZM122.97 30.138C123.773 30.138 124.246 30.655 124.356 31.557H121.595C121.716 30.655 122.178 30.138 122.97 30.138Z" fill="#002444"/>
<path d="M72.175 19.3H70.92V23H72.175C73.255 23 73.97 22.26 73.97 21.16C73.97 20.04 73.255 19.3 72.175 19.3ZM72.145 22.685H71.3V19.615H72.145C73.005 19.615 73.575 20.23 73.575 21.16C73.575 22.07 73.005 22.685 72.145 22.685ZM76.3484 23.05C77.4534 23.05 78.1934 22.29 78.1934 21.15C78.1934 20.01 77.4534 19.25 76.3484 19.25C75.2384 19.25 74.4934 20.01 74.4934 21.15C74.4934 22.29 75.2384 23.05 76.3484 23.05ZM76.3484 22.735C75.4734 22.735 74.8934 22.1 74.8934 21.15C74.8934 20.2 75.4734 19.565 76.3484 19.565C77.2134 19.565 77.7984 20.2 77.7984 21.15C77.7984 22.1 77.2134 22.735 76.3484 22.735ZM83.4489 19.3L82.3389 22.49L81.3239 19.3H80.9589L79.9439 22.49L78.8289 19.3H78.4239L79.7489 23H80.1039L81.1389 19.855L82.1739 23H82.5339L83.8539 19.3H83.4489ZM84.4015 23H84.7815L84.7765 19.96L87.3465 23H87.5915V19.3H87.2115L87.2165 22.34L84.6465 19.3H84.4015V23ZM88.9807 22.685V19.3H88.6007V23H90.7307V22.685H88.9807ZM92.7205 23.05C93.8255 23.05 94.5655 22.29 94.5655 21.15C94.5655 20.01 93.8255 19.25 92.7205 19.25C91.6105 19.25 90.8655 20.01 90.8655 21.15C90.8655 22.29 91.6105 23.05 92.7205 23.05ZM92.7205 22.735C91.8455 22.735 91.2655 22.1 91.2655 21.15C91.2655 20.2 91.8455 19.565 92.7205 19.565C93.5855 19.565 94.1705 20.2 94.1705 21.15C94.1705 22.1 93.5855 22.735 92.7205 22.735ZM97.9414 23H98.3464L96.7264 19.3H96.3664L94.7464 23H95.1514L95.5664 22.035H97.5264L97.9414 23ZM95.7064 21.715L96.5514 19.76L97.3914 21.715H95.7064ZM100.119 19.3H98.8644V23H100.119C101.199 23 101.914 22.26 101.914 21.16C101.914 20.04 101.199 19.3 100.119 19.3ZM100.089 22.685H99.2444V19.615H100.089C100.949 19.615 101.519 20.23 101.519 21.16C101.519 22.07 100.949 22.685 100.089 22.685ZM105.616 23.05C106.721 23.05 107.461 22.29 107.461 21.15C107.461 20.01 106.721 19.25 105.616 19.25C104.506 19.25 103.761 20.01 103.761 21.15C103.761 22.29 104.506 23.05 105.616 23.05ZM105.616 22.735C104.741 22.735 104.161 22.1 104.161 21.15C104.161 20.2 104.741 19.565 105.616 19.565C106.481 19.565 107.066 20.2 107.066 21.15C107.066 22.1 106.481 22.735 105.616 22.735ZM108.225 23H108.605L108.6 19.96L111.17 23H111.415V19.3H111.035L111.04 22.34L108.47 19.3H108.225V23ZM115.926 19.3H113.161V19.615H114.356V23H114.736V19.615H115.926V19.3ZM119.161 19.3V20.96H116.876V19.3H116.496V23H116.876V21.28H119.161V23H119.541V19.3H119.161ZM120.929 22.685V21.27H122.704V20.955H120.929V19.615H122.829V19.3H120.549V23H122.874V22.685H120.929Z" fill="#002444"/>
<path d="M43.0023 28.387C42.9597 26.5936 43.338 24.8151 44.1067 23.1943C44.6299 22.1397 45.4272 21.2454 46.4149 20.605C47.4027 19.9646 48.5445 19.6017 49.7208 19.5544C50.364 19.5221 51.0071 19.6229 51.6095 19.8506C52.4115 20.1281 53.2083 20.4201 54.0083 20.6996C54.4876 20.8406 55.0029 20.7921 55.4475 20.564C56.4996 20.085 57.614 19.7567 58.7578 19.5889C59.8084 19.442 60.8789 19.5469 61.8811 19.8949C62.8832 20.2428 63.7884 20.8239 64.522 21.5902C64.6545 21.7227 64.7713 21.8708 64.9037 22.0074C65.081 22.1847 65.0883 22.3036 64.8411 22.4517C64.1007 22.8941 63.4758 23.5061 63.0181 24.2372C62.4636 25.0736 62.157 26.0498 62.1337 27.0531C62.0542 27.9688 62.1606 28.8911 62.4466 29.7647C63.0475 31.1663 64.1166 32.3158 65.4711 33.0165C65.8507 33.2345 65.857 33.2335 65.6995 33.6267C65.0271 35.4228 64.07 37.099 62.8648 38.591C62.3179 39.2684 61.6405 39.8291 60.8728 40.2399C60.3408 40.5078 59.7519 40.6436 59.1563 40.6356C58.5606 40.6276 57.9756 40.4761 57.451 40.194C56.7227 39.8247 55.9231 39.6177 55.1071 39.5871C54.2912 39.5565 53.4783 39.703 52.7244 40.0167C52.0236 40.3356 51.274 40.5341 50.5072 40.6038C50.1281 40.6439 49.7449 40.6063 49.3809 40.4933C49.0169 40.3803 48.6798 40.1944 48.39 39.9468C45.6737 37.5276 43.8558 34.2607 43.2317 30.6773C43.1792 30.4264 43.1395 30.173 43.1128 29.918C43.0669 29.3569 43.0325 28.7969 43.0023 28.387Z" fill="#002444"/>
<path d="M60.0208 13.2512C59.9545 14.8616 59.3513 16.4036 58.3073 17.6315C57.8249 18.1492 57.2409 18.5619 56.5919 18.8438C55.9428 19.1257 55.2426 19.2708 54.535 19.2699C54.3066 19.2793 54.3024 19.1354 54.3108 18.98C54.3448 17.6294 54.8002 16.3232 55.6134 15.2442C56.6516 13.9687 58.1178 13.1137 59.7392 12.8382C60.1679 12.7444 59.9562 13.0885 60.0208 13.2512Z" fill="#002444"/>
</svg>
