<svg width="169" height="57" viewBox="0 0 169 57" fill="none" xmlns="http://www.w3.org/2000/svg">
<rect width="168.828" height="56.2761" rx="10" fill="black"/>
<path d="M85.4363 29.2709C84.7148 29.2674 84.0086 29.4782 83.4071 29.8765C82.8055 30.2748 82.3357 30.8427 82.0573 31.5083C81.7788 32.1739 81.7041 32.9071 81.8428 33.6151C81.9814 34.3231 82.3271 34.9741 82.836 35.4854C83.3449 35.9968 83.9942 36.3456 84.7015 36.4876C85.4089 36.6297 86.1425 36.5585 86.8094 36.2832C87.4762 36.0079 88.0464 35.5409 88.4476 34.9413C88.8488 34.3416 89.0629 33.6364 89.0629 32.9149C89.0706 32.4357 88.9822 31.9599 88.8028 31.5155C88.6235 31.071 88.3569 30.667 88.0189 30.3273C87.6808 29.9876 87.2781 29.7191 86.8345 29.5377C86.391 29.3562 85.9155 29.2655 85.4363 29.2709V29.2709ZM85.4363 35.125C84.9915 35.1612 84.5461 35.0624 84.1583 34.8414C83.7706 34.6205 83.4585 34.2877 83.2629 33.8865C83.0673 33.4854 82.9973 33.0346 83.062 32.593C83.1267 32.1514 83.3231 31.7396 83.6255 31.4115C83.928 31.0833 84.3224 30.854 84.7573 30.7536C85.1921 30.6532 85.6471 30.6863 86.0629 30.8486C86.4786 31.0109 86.8357 31.2948 87.0875 31.6633C87.3392 32.0318 87.474 32.4677 87.4741 32.914C87.4883 33.1936 87.4465 33.4733 87.3513 33.7367C87.2561 34.0001 87.1093 34.2418 86.9196 34.4478C86.7298 34.6537 86.5009 34.8198 86.2462 34.9362C85.9916 35.0527 85.7162 35.1172 85.4363 35.1259V35.125ZM77.527 29.2709C76.8055 29.2674 76.0993 29.4782 75.4977 29.8765C74.8962 30.2748 74.4264 30.8427 74.1479 31.5083C73.8694 32.1739 73.7948 32.9071 73.9334 33.6151C74.0721 34.3231 74.4177 34.9741 74.9267 35.4854C75.4356 35.9968 76.0849 36.3456 76.7922 36.4876C77.4996 36.6297 78.2332 36.5585 78.9 36.2832C79.5669 36.0079 80.1371 35.5409 80.5383 34.9413C80.9395 34.3416 81.1536 33.6364 81.1536 32.9149C81.1622 32.4356 81.0744 31.9594 80.8955 31.5146C80.7166 31.0698 80.4501 30.6655 80.112 30.3256C79.7738 29.9857 79.3709 29.7173 78.927 29.5361C78.4831 29.3549 78.0074 29.2647 77.528 29.2709H77.527ZM77.527 35.125C77.0822 35.1612 76.6368 35.0624 76.249 34.8414C75.8613 34.6205 75.5492 34.2877 75.3536 33.8865C75.158 33.4854 75.088 33.0346 75.1527 32.593C75.2174 32.1514 75.4138 31.7396 75.7162 31.4115C76.0187 31.0833 76.4131 30.854 76.848 30.7536C77.2828 30.6532 77.7378 30.6863 78.1536 30.8486C78.5693 31.0109 78.9264 31.2948 79.1782 31.6633C79.4299 32.0318 79.5647 32.4677 79.5648 32.914C79.579 33.1936 79.5372 33.4732 79.4421 33.7365C79.3469 33.9998 79.2002 34.2415 79.0106 34.4474C78.8209 34.6534 78.5922 34.8194 78.3376 34.9359C78.083 35.0525 77.8078 35.117 77.528 35.1259L77.527 35.125ZM68.1324 30.3933V31.9299H71.7938C71.7442 32.6502 71.4519 33.3324 70.9646 33.8651C70.5976 34.2403 70.1558 34.5341 69.6678 34.7275C69.1799 34.9208 68.6568 35.0095 68.1324 34.9876C67.0417 34.9876 65.9957 34.5543 65.2245 33.7831C64.4533 33.0119 64.02 31.9659 64.02 30.8752C64.02 29.7845 64.4533 28.7385 65.2245 27.9673C65.9957 27.1961 67.0417 26.7628 68.1324 26.7628C68.6431 26.7555 69.1503 26.8494 69.6246 27.0391C70.0989 27.2287 70.531 27.5104 70.8959 27.8678L71.9835 26.7802C71.4778 26.2773 70.8765 25.8807 70.2151 25.6139C69.5536 25.347 68.8455 25.2152 68.1324 25.2262C66.6347 25.2262 65.1983 25.8212 64.1393 26.8802C63.0803 27.9392 62.4854 29.3756 62.4854 30.8733C62.4854 32.3709 63.0803 33.8073 64.1393 34.8663C65.1983 35.9253 66.6347 36.5203 68.1324 36.5203C68.827 36.5566 69.5215 36.4475 70.1715 36.1998C70.8214 35.9521 71.4125 35.5714 71.9068 35.082C72.401 34.5927 72.7876 34.0055 73.0418 33.358C73.296 32.7106 73.4121 32.0172 73.3827 31.3222C73.3837 30.9977 73.3549 30.6738 73.2966 30.3546L68.1324 30.3933ZM106.592 31.5845C106.377 30.9278 105.965 30.3534 105.412 29.9392C104.859 29.5251 104.191 29.2914 103.501 29.2699C103.034 29.2739 102.574 29.3728 102.147 29.5605C101.72 29.7481 101.336 30.0207 101.017 30.3616C100.699 30.7025 100.454 31.1045 100.296 31.5433C100.138 31.9821 100.071 32.4484 100.099 32.914C100.087 33.6896 100.327 34.4483 100.782 35.0762C101.238 35.7041 101.884 36.1676 102.625 36.3971C103.366 36.6266 104.162 36.6098 104.893 36.3492C105.623 36.0887 106.25 35.5984 106.678 34.9518L105.452 34.1225C105.269 34.4296 105.008 34.6834 104.696 34.859C104.384 35.0346 104.032 35.126 103.674 35.124C103.305 35.1404 102.941 35.0432 102.629 34.8456C102.318 34.6479 102.074 34.3594 101.932 34.019L106.77 31.9986L106.592 31.5845ZM101.67 32.8104C101.653 32.5469 101.688 32.2827 101.774 32.0329C101.86 31.7831 101.994 31.5526 102.169 31.3548C102.343 31.157 102.556 30.9957 102.793 30.8802C103.031 30.7647 103.288 30.6972 103.552 30.6817C103.828 30.6627 104.103 30.7261 104.343 30.8639C104.583 31.0018 104.776 31.2078 104.899 31.4558L101.67 32.8104ZM97.7512 36.3345H99.34V25.6442H97.7512V36.3345ZM95.1386 30.0827H95.0864C94.8466 29.819 94.5528 29.61 94.2251 29.4699C93.8973 29.3298 93.5433 29.2619 93.1869 29.2709C92.2552 29.319 91.3775 29.7229 90.7351 30.3994C90.0926 31.0759 89.7344 31.9733 89.7344 32.9062C89.7344 33.8392 90.0926 34.7365 90.7351 35.413C91.3775 36.0895 92.2552 36.4935 93.1869 36.5416C93.5451 36.5517 93.901 36.4826 94.2293 36.3393C94.5577 36.1959 94.8503 35.9818 95.0864 35.7123H95.1386V36.23C95.1386 37.6292 94.3965 38.3713 93.2034 38.3713C92.8066 38.3599 92.4223 38.2306 92.0993 37.9998C91.7764 37.7691 91.5294 37.4473 91.3901 37.0757L90.0083 37.663C90.2647 38.3002 90.7057 38.8462 91.2747 39.2308C91.8437 39.6155 92.5147 39.8213 93.2015 39.8218C95.067 39.8218 96.6384 38.7168 96.6384 36.0394V29.4954H95.1386V30.0827ZM93.3253 35.1259C92.7778 35.0733 92.2696 34.8186 91.8998 34.4115C91.53 34.0044 91.3251 33.4741 91.3251 32.9241C91.3251 32.3741 91.53 31.8439 91.8998 31.4368C92.2696 31.0297 92.7778 30.775 93.3253 30.7223C93.8597 30.7924 94.3503 31.0544 94.7057 31.4596C95.0611 31.8647 95.2571 32.3852 95.2571 32.9241C95.2571 33.4631 95.0611 33.9836 94.7057 34.3887C94.3503 34.7938 93.8597 35.0558 93.3253 35.1259ZM114.015 25.6433H110.216V36.3345H111.805V32.2763H114.016C114.465 32.298 114.914 32.2283 115.335 32.0715C115.756 31.9146 116.141 31.6738 116.466 31.3638C116.792 31.0537 117.051 30.6808 117.228 30.2677C117.405 29.8545 117.496 29.4097 117.496 28.9603C117.496 28.5108 117.405 28.066 117.228 27.6529C117.051 27.2397 116.792 26.8668 116.466 26.5568C116.141 26.2467 115.756 26.0059 115.335 25.8491C114.914 25.6922 114.465 25.6225 114.016 25.6442L114.015 25.6433ZM114.067 30.79H111.805V27.1295H114.067C114.557 27.1274 115.027 27.3186 115.376 27.6613C115.726 28.0041 115.926 28.4709 115.933 28.9603C115.92 29.4472 115.718 29.9101 115.371 30.2516C115.024 30.5931 114.557 30.7864 114.07 30.791L114.067 30.79ZM123.859 29.2535C123.28 29.2189 122.704 29.3567 122.203 29.6495C121.702 29.9422 121.299 30.3768 121.045 30.8984L122.444 31.4858C122.585 31.2306 122.798 31.0218 123.055 30.8845C123.313 30.7471 123.605 30.6871 123.895 30.7117C124.301 30.6734 124.704 30.7973 125.018 31.0563C125.332 31.3154 125.531 31.6883 125.57 32.0934V32.197C125.062 31.9206 124.491 31.7781 123.913 31.7828C122.393 31.7828 120.856 32.6295 120.856 34.1835C120.869 34.5118 120.948 34.8341 121.088 35.1313C121.228 35.4285 121.426 35.6946 121.671 35.9136C121.916 36.1327 122.203 36.3003 122.513 36.4065C122.824 36.5127 123.153 36.5554 123.481 36.5319C123.882 36.5564 124.282 36.4713 124.638 36.2856C124.994 36.1 125.292 35.8208 125.502 35.4782H125.554V36.3074H127.09V32.2066C127.094 31.794 127.01 31.3853 126.846 31.007C126.681 30.6288 126.438 30.2894 126.134 30.011C125.829 29.7325 125.47 29.5213 125.078 29.391C124.687 29.2606 124.272 29.2141 123.861 29.2544L123.859 29.2535ZM123.666 35.1076C123.148 35.1076 122.423 34.8482 122.423 34.2096C122.423 33.3804 123.321 33.0698 124.098 33.0698C124.605 33.0591 125.106 33.1844 125.549 33.4326C125.492 33.8918 125.27 34.3147 124.925 34.6229C124.58 34.9311 124.134 35.1036 123.672 35.1085L123.666 35.1076ZM132.646 29.4954L130.833 34.1235H130.781L128.909 29.4954H127.199L130.031 35.9716L128.425 39.5809H130.082L134.437 29.4954H132.646ZM118.382 36.3345H119.971V25.6442H118.382V36.3345Z" fill="white"/>
<path d="M34.409 28.4182V18.163C34.409 17.9193 34.3135 17.5706 34.5466 17.4732C34.7568 17.3834 34.9097 17.7149 35.0692 17.8744C38.473 21.2693 41.8732 24.667 45.27 28.0675C45.6626 28.4602 45.6626 28.4602 45.27 28.8538C41.8229 32.2958 38.3755 35.7394 34.9278 39.1845C34.8151 39.2972 34.7119 39.5323 34.5399 39.453C34.368 39.3737 34.409 39.1291 34.409 38.9476C34.409 35.4381 34.409 31.9283 34.409 28.4182Z" fill="white"/>
<path d="M49.8846 24.1526C49.8364 24.224 49.7838 24.2923 49.727 24.357C48.7716 25.3258 47.8057 26.2888 46.8541 27.2652C46.6554 27.4697 46.5245 27.4344 46.341 27.25C42.8239 23.7246 39.3055 20.202 35.7858 16.6823C35.7075 16.604 35.5575 16.5343 35.6206 16.4015C35.6836 16.2687 35.8327 16.3317 35.9435 16.3365C36.2469 16.3536 36.5419 16.4433 36.8033 16.5983C41.0708 19.0243 45.3382 21.4529 49.6056 23.8841C49.7164 23.9443 49.855 23.9777 49.8846 24.1526Z" fill="white"/>
<path d="M35.892 40.5901C35.7879 40.5662 35.6503 40.6321 35.6111 40.4993C35.5777 40.3837 35.7 40.3197 35.7688 40.249C36.6458 39.3681 37.5245 38.4885 38.4047 37.6102L46.2323 29.7827C46.6058 29.4091 46.6068 29.4091 46.988 29.7941C47.8727 30.6858 48.7561 31.5775 49.6382 32.4692C49.9736 32.8093 49.9755 32.817 49.5695 33.0482C45.3058 35.4762 41.0419 37.9029 36.7777 40.3283C36.5067 40.4828 36.2035 40.5724 35.892 40.5901V40.5901Z" fill="white"/>
<path d="M56.2026 28.4774C56.1745 28.7525 56.0774 29.0162 55.9205 29.244C55.7635 29.4717 55.5517 29.6563 55.3045 29.7805C54.3902 30.3156 53.4664 30.8315 52.5463 31.3598C52.1947 31.5614 51.8393 31.7525 51.4954 31.9646C51.4583 31.9959 51.4154 32.0194 51.3691 32.0338C51.3228 32.0483 51.2741 32.0533 51.2258 32.0485C51.1775 32.0438 51.1307 32.0295 51.0881 32.0064C51.0454 31.9832 51.0079 31.9518 50.9776 31.9139C49.9094 30.8356 48.8353 29.7627 47.755 28.6952C47.564 28.5099 47.5936 28.3809 47.7684 28.2108C48.8512 27.1484 49.9305 26.0816 51.0062 25.0102C51.0637 24.9415 51.1455 24.8976 51.2345 24.8878C51.3235 24.878 51.4129 24.9031 51.4839 24.9577C52.7536 25.6876 54.0329 26.4023 55.2998 27.137C55.555 27.261 55.7729 27.4504 55.9315 27.6857C56.09 27.9211 56.1835 28.1942 56.2026 28.4774V28.4774Z" fill="white"/>
<path d="M65.8946 20.6318H66.2996L64.6796 16.9318H64.3196L62.6996 20.6318H63.1046L63.5196 19.6668H65.4796L65.8946 20.6318ZM63.6596 19.3468L64.5046 17.3918L65.3446 19.3468H63.6596ZM66.8175 20.6318H67.1975L67.1925 17.5918L69.7625 20.6318H70.0075V16.9318H69.6275L69.6325 19.9718L67.0625 16.9318H66.8175V20.6318ZM72.2717 16.9318H71.0167V20.6318H72.2717C73.3517 20.6318 74.0667 19.8918 74.0667 18.7918C74.0667 17.6718 73.3517 16.9318 72.2717 16.9318ZM72.2417 20.3168H71.3967V17.2468H72.2417C73.1017 17.2468 73.6717 17.8618 73.6717 18.7918C73.6717 19.7018 73.1017 20.3168 72.2417 20.3168ZM77.7001 20.6318L76.6501 19.0568C77.1401 18.9118 77.4401 18.5318 77.4401 18.0268C77.4401 17.3668 76.9501 16.9318 76.2001 16.9318H74.8351V20.6318H75.2151V19.1218H76.1801H76.2651L77.2501 20.6318H77.7001ZM75.2151 17.2468H76.1501C76.6901 17.2468 77.0451 17.5568 77.0451 18.0268C77.0451 18.4918 76.6851 18.8068 76.1501 18.8068H75.2151V17.2468ZM79.8972 20.6818C81.0022 20.6818 81.7422 19.9218 81.7422 18.7818C81.7422 17.6418 81.0022 16.8818 79.8972 16.8818C78.7872 16.8818 78.0422 17.6418 78.0422 18.7818C78.0422 19.9218 78.7872 20.6818 79.8972 20.6818ZM79.8972 20.3668C79.0222 20.3668 78.4422 19.7318 78.4422 18.7818C78.4422 17.8318 79.0222 17.1968 79.8972 17.1968C80.7622 17.1968 81.3472 17.8318 81.3472 18.7818C81.3472 19.7318 80.7622 20.3668 79.8972 20.3668ZM82.506 20.6318H82.886V16.9318H82.506V20.6318ZM85.1526 16.9318H83.8976V20.6318H85.1526C86.2326 20.6318 86.9476 19.8918 86.9476 18.7918C86.9476 17.6718 86.2326 16.9318 85.1526 16.9318ZM85.1226 20.3168H84.2776V17.2468H85.1226C85.9826 17.2468 86.5526 17.8618 86.5526 18.7918C86.5526 19.7018 85.9826 20.3168 85.1226 20.3168ZM91.5782 20.6318H91.9832L90.3632 16.9318H90.0032L88.3832 20.6318H88.7882L89.2032 19.6668H91.1632L91.5782 20.6318ZM89.3432 19.3468L90.1882 17.3918L91.0282 19.3468H89.3432ZM93.8461 16.9318H92.5011V20.6318H92.8811V19.2118H93.8461C94.5711 19.2118 95.0561 18.7518 95.0561 18.0568C95.0561 17.3818 94.5761 16.9318 93.8461 16.9318ZM93.7961 18.8968H92.8811V17.2468H93.7961C94.3161 17.2468 94.6611 17.5768 94.6611 18.0718C94.6611 18.5668 94.3211 18.8968 93.7961 18.8968ZM97.0785 16.9318H95.7335V20.6318H96.1135V19.2118H97.0785C97.8035 19.2118 98.2885 18.7518 98.2885 18.0568C98.2885 17.3818 97.8085 16.9318 97.0785 16.9318ZM97.0285 18.8968H96.1135V17.2468H97.0285C97.5485 17.2468 97.8935 17.5768 97.8935 18.0718C97.8935 18.5668 97.5535 18.8968 97.0285 18.8968ZM101.767 20.6818C102.872 20.6818 103.612 19.9218 103.612 18.7818C103.612 17.6418 102.872 16.8818 101.767 16.8818C100.657 16.8818 99.9123 17.6418 99.9123 18.7818C99.9123 19.9218 100.657 20.6818 101.767 20.6818ZM101.767 20.3668C100.892 20.3668 100.312 19.7318 100.312 18.7818C100.312 17.8318 100.892 17.1968 101.767 17.1968C102.632 17.1968 103.217 17.8318 103.217 18.7818C103.217 19.7318 102.632 20.3668 101.767 20.3668ZM104.376 20.6318H104.756L104.751 17.5918L107.321 20.6318H107.566V16.9318H107.186L107.191 19.9718L104.621 16.9318H104.376V20.6318Z" fill="white"/>
</svg>
